<svg xmlns="http://www.w3.org/2000/svg" width="40" height="40" fill="none"><path fill="#F5F6FA" fill-opacity=".01" fill-rule="evenodd" d="M19.947 39.51c11.016 0 19.947-8.844 19.947-19.755C39.894 8.845 30.964 0 19.947 0S0 8.845 0 19.755c0 10.91 8.93 19.756 19.947 19.756Z" clip-rule="evenodd"/><mask id="a" width="40" height="40" x="0" y="0" maskUnits="userSpaceOnUse" style="mask-type:luminance"><path fill="#fff" fill-rule="evenodd" d="M19.947 39.51c11.016 0 19.947-8.844 19.947-19.755C39.894 8.845 30.964 0 19.947 0S0 8.845 0 19.755c0 10.91 8.93 19.756 19.947 19.756Z" clip-rule="evenodd"/></mask><path fill="#fff" d="M22.232 29.787v-8.695h2.975l.446-3.39h-3.42v-2.164c0-.98.276-1.65 1.712-1.65h1.828v-3.032a25.274 25.274 0 0 0-2.665-.133c-2.638 0-4.444 1.58-4.444 4.48v2.5h-2.983v3.389h2.983v8.695h3.568Z"/><mask id="b" width="11" height="20" x="15" y="10" maskUnits="userSpaceOnUse" style="mask-type:luminance"><path fill="#fff" d="M22.232 29.787v-8.695h2.975l.446-3.39h-3.42v-2.164c0-.98.276-1.65 1.712-1.65h1.828v-3.032a25.274 25.274 0 0 0-2.665-.133c-2.638 0-4.444 1.58-4.444 4.48v2.5h-2.983v3.389h2.983v8.695h3.568Z"/></mask><g mask="url(#b)"><path fill="#fff" d="M7.341 7.149h26.213v26.213H7.341z"/></g></svg>