<svg xmlns="http://www.w3.org/2000/svg" width="40" height="40" fill="none"><path fill="#F5F6FA" fill-opacity=".01" fill-rule="evenodd" d="M19.947 39.51c11.016 0 19.947-8.844 19.947-19.755C39.894 8.845 30.964 0 19.947 0S0 8.845 0 19.755c0 10.91 8.93 19.756 19.947 19.756Z" clip-rule="evenodd"/><mask id="a" width="40" height="40" x="0" y="0" maskUnits="userSpaceOnUse" style="mask-type:luminance"><path fill="#fff" fill-rule="evenodd" d="M19.947 39.51c11.016 0 19.947-8.844 19.947-19.755C39.894 8.845 30.964 0 19.947 0S0 8.845 0 19.755c0 10.91 8.93 19.756 19.947 19.756Z" clip-rule="evenodd"/></mask><path fill="#000" d="M20.447 18.587v3.336h4.719a5.014 5.014 0 0 1-4.72 3.337 5.01 5.01 0 0 1-5.003-5.005 5.01 5.01 0 0 1 5.004-5.004 4.93 4.93 0 0 1 3.241 1.208l2.192-2.516a8.266 8.266 0 0 0-5.433-2.028c-4.599 0-8.34 3.741-8.34 8.34 0 4.6 3.741 8.34 8.34 8.34s8.34-3.74 8.34-8.34v-1.668h-8.34Z"/><mask id="b" width="17" height="18" x="12" y="11" maskUnits="userSpaceOnUse" style="mask-type:luminance"><path fill="#fff" d="M20.447 18.587v3.336h4.719a5.014 5.014 0 0 1-4.72 3.337 5.01 5.01 0 0 1-5.003-5.005 5.01 5.01 0 0 1 5.004-5.004 4.93 4.93 0 0 1 3.241 1.208l2.192-2.516a8.266 8.266 0 0 0-5.433-2.028c-4.599 0-8.34 3.741-8.34 8.34 0 4.6 3.741 8.34 8.34 8.34s8.34-3.74 8.34-8.34v-1.668h-8.34Z"/></mask><g mask="url(#b)"><path fill="#fff" d="M7.341 7.149h26.213v26.213H7.341z"/></g></svg>