<?xml version="1.0" encoding="utf-8"?><svg viewBox="0 0 285 50" xmlns="http://www.w3.org/2000/svg" xmlns:xlink="http://www.w3.org/1999/xlink"><style>:root>svg{display:none}:root>svg:target{display:block}</style><svg fill="none" viewBox="0 0 30 17" id="burger" xmlns="http://www.w3.org/2000/svg"><path stroke="#fff" d="M0 .5h30M0 8.5h30M0 16.5h30"/></svg><svg fill="none" viewBox="0 0 40 40" id="facebook" xmlns="http://www.w3.org/2000/svg"><path fill-rule="evenodd" clip-rule="evenodd" d="M19.947 39.51c11.016 0 19.947-8.844 19.947-19.755C39.894 8.845 30.964 0 19.947 0S0 8.845 0 19.755c0 10.91 8.93 19.756 19.947 19.756Z" fill="#F5F6FA" fill-opacity=".01"/><mask id="ba" style="mask-type:luminance" maskUnits="userSpaceOnUse" x="0" y="0" width="40" height="40"><path fill-rule="evenodd" clip-rule="evenodd" d="M19.947 39.51c11.016 0 19.947-8.844 19.947-19.755C39.894 8.845 30.964 0 19.947 0S0 8.845 0 19.755c0 10.91 8.93 19.756 19.947 19.756Z" fill="#fff"/></mask><path d="M22.232 29.787v-8.695h2.975l.446-3.39h-3.42v-2.164c0-.98.276-1.65 1.712-1.65h1.828v-3.032a25.274 25.274 0 0 0-2.665-.133c-2.638 0-4.444 1.58-4.444 4.48v2.5h-2.983v3.389h2.983v8.695h3.568Z" fill="#fff"/><mask id="bb" style="mask-type:luminance" maskUnits="userSpaceOnUse" x="15" y="10" width="11" height="20"><path d="M22.232 29.787v-8.695h2.975l.446-3.39h-3.42v-2.164c0-.98.276-1.65 1.712-1.65h1.828v-3.032a25.274 25.274 0 0 0-2.665-.133c-2.638 0-4.444 1.58-4.444 4.48v2.5h-2.983v3.389h2.983v8.695h3.568Z" fill="#fff"/></mask><g mask="url(#bb)"><path fill="#fff" d="M7.341 7.149h26.213v26.213H7.341z"/></g></svg><svg fill="none" viewBox="0 0 40 40" id="google" xmlns="http://www.w3.org/2000/svg"><path fill-rule="evenodd" clip-rule="evenodd" d="M19.947 39.51c11.016 0 19.947-8.844 19.947-19.755C39.894 8.845 30.964 0 19.947 0S0 8.845 0 19.755c0 10.91 8.93 19.756 19.947 19.756Z" fill="#F5F6FA" fill-opacity=".01"/><mask id="ca" style="mask-type:luminance" maskUnits="userSpaceOnUse" x="0" y="0" width="40" height="40"><path fill-rule="evenodd" clip-rule="evenodd" d="M19.947 39.51c11.016 0 19.947-8.844 19.947-19.755C39.894 8.845 30.964 0 19.947 0S0 8.845 0 19.755c0 10.91 8.93 19.756 19.947 19.756Z" fill="#fff"/></mask><path d="M20.447 18.587v3.336h4.719a5.014 5.014 0 0 1-4.72 3.337 5.01 5.01 0 0 1-5.003-5.005 5.01 5.01 0 0 1 5.004-5.004 4.93 4.93 0 0 1 3.241 1.208l2.192-2.516a8.266 8.266 0 0 0-5.433-2.028c-4.599 0-8.34 3.741-8.34 8.34 0 4.6 3.741 8.34 8.34 8.34s8.34-3.74 8.34-8.34v-1.668h-8.34Z" fill="#000"/><mask id="cb" style="mask-type:luminance" maskUnits="userSpaceOnUse" x="12" y="11" width="17" height="18"><path d="M20.447 18.587v3.336h4.719a5.014 5.014 0 0 1-4.72 3.337 5.01 5.01 0 0 1-5.003-5.005 5.01 5.01 0 0 1 5.004-5.004 4.93 4.93 0 0 1 3.241 1.208l2.192-2.516a8.266 8.266 0 0 0-5.433-2.028c-4.599 0-8.34 3.741-8.34 8.34 0 4.6 3.741 8.34 8.34 8.34s8.34-3.74 8.34-8.34v-1.668h-8.34Z" fill="#fff"/></mask><g mask="url(#cb)"><path fill="#fff" d="M7.341 7.149h26.213v26.213H7.341z"/></g></svg><svg fill="none" viewBox="0 0 285 33" id="logo" xmlns="http://www.w3.org/2000/svg"><path fill-rule="evenodd" clip-rule="evenodd" d="M182.875 18.403h10.608v2.472h-10.608v-2.472ZM6.457 3.41l-.95 24.809v.43c0 2.103.617 2.534 3.94 2.773v1.148c-2.42-.192-3.37-.24-4.7-.24-1.329 0-2.278.048-4.747.24v-1.148c3.323-.24 3.798-.622 3.893-3.203L4.89 4.75v-.287c0-2.2-.665-2.677-3.94-2.868V.4C2.8.542 3.513.59 4.842.59 6.6.59 7.55.542 9.352.35l8.831 24.188L27.156.351c2.137.19 3.134.24 4.558.24 1.187 0 1.946-.05 3.75-.192v1.195c-3.228.19-3.94.669-3.94 2.82v.335l.522 23.47c.048 2.581.475 2.964 3.893 3.203v1.148c-2.99-.288-4.13-.383-5.934-.383-1.804 0-2.944.095-5.934.383v-1.148c3.228-.191 3.94-.717 3.94-2.964v-.24l-.427-24.76-7.834 21.319-.57 1.578-.664 1.768-.617 1.817-.523 1.577h-.712l-.522-1.53-.665-1.864-.664-1.864-.57-1.673L6.457 3.41Zm35.65 15.44c.476-5.497 2.28-8.318 5.318-8.318 3.086 0 4.653 2.677 4.938 8.318H42.108Zm6.173 12.524c-4.32 0-6.22-3.346-6.267-10.803H56.16c-.095-7.362-3.086-11.282-8.688-11.282-5.698 0-9.258 4.638-9.258 11.999 0 7.361 3.56 11.664 9.685 11.664 4.652 0 7.691-2.916 8.308-7.84H54.31c-.57 4.063-2.659 6.262-6.03 6.262Zm10.707-20.316v-.86c2.706-.239 4.32-.526 6.267-1.1.238 1.77.332 2.534.428 3.968v.526c1.044-2.725 3.085-4.303 5.554-4.303 2.374 0 4.13 1.578 4.13 3.873 0 1.385-.806 2.294-1.993 2.294-1.092 0-1.946-.67-1.946-1.625 0-.096.047-.287.094-.478l.095-.478v-.43c0-.67-.57-1.148-1.424-1.148-2.469 0-4.036 3.012-4.036 7.744v9.99c0 2.056.475 2.439 3.37 2.582v.956c-2.61-.239-3.607-.287-5.269-.287-1.71 0-2.706.048-5.317.287v-.956c2.896-.143 3.418-.526 3.418-2.581V13.4c-.047-2.056-.285-2.295-2.753-2.343h-.617ZM93.528 8.86v7.887h-1.045c-.854-4.159-2.61-6.167-5.507-6.167-3.56 0-5.65 3.872-5.65 10.708 0 6.692 1.852 10.086 5.507 10.086 2.944 0 4.7-2.104 5.27-6.31h1.947c-.617 5.115-3.324 7.888-7.596 7.888-5.507 0-9.258-4.685-9.258-11.664 0-7.123 3.798-11.998 9.4-11.998 2.042 0 3.324.525 4.843 2.007l1.282-2.437h.807Zm7.796 9.99c.475-5.497 2.279-8.318 5.318-8.318 3.086 0 4.652 2.677 4.938 8.318h-10.256Zm6.173 12.524c-4.321 0-6.22-3.346-6.268-10.803h14.148c-.095-7.362-3.085-11.282-8.687-11.282-5.698 0-9.258 4.638-9.258 11.999 0 7.361 3.56 11.664 9.685 11.664 4.652 0 7.691-2.916 8.308-7.84h-1.899c-.57 4.063-2.658 6.262-6.029 6.262Zm21.028.286c-3.418 0-5.222-3.584-5.222-10.42 0-6.931 1.662-10.325 5.08-10.325 3.513 0 5.317 3.633 5.317 10.66 0 6.644-1.757 10.085-5.175 10.085Zm8.926-4.062V0c-2.374.637-4.511 1.02-7.169 1.307v.813c2.991 0 3.37.334 3.37 2.82v8.365c-1.756-2.868-3.133-3.729-5.696-3.729-5.08 0-8.641 4.828-8.641 11.712 0 6.883 3.608 11.712 8.783 11.712 2.706 0 4.558-1.244 5.887-3.92.19 1.816.19 2.007.665 3.824 1.946-.622 2.754-.813 5.554-1.148l.713-.096v-.812c-3.181-.095-3.466-.334-3.466-3.25Zm9.157-8.748c.475-5.497 2.279-8.318 5.317-8.318 3.086 0 4.652 2.677 4.937 8.318h-10.254Zm6.172 12.524c-4.321 0-6.22-3.346-6.267-10.803h14.148c-.095-7.362-3.087-11.282-8.688-11.282-5.698 0-9.259 4.638-9.259 11.999 0 7.361 3.561 11.664 9.685 11.664 4.653 0 7.692-2.916 8.309-7.84h-1.899c-.569 4.063-2.659 6.262-6.029 6.262ZM164.69 33v-7.984l1.044-.047c.855 4.35 2.849 6.453 6.173 6.453 2.801 0 4.89-1.865 4.89-4.303 0-1.625-.902-2.724-3.229-3.776l-1.805-.813-2.183-1.003c-3.466-1.626-4.558-2.964-4.558-5.736 0-3.777 2.944-6.358 7.122-6.358 1.852 0 3.228.43 4.843 1.53l.806-1.96h.855v7.409h-1.092c-.428-3.824-1.994-5.64-4.985-5.64-2.516 0-4.462 1.72-4.462 3.967 0 1.912.711 2.533 5.032 4.445l1.994.861c3.608 1.577 4.89 3.107 4.89 5.927 0 4.015-3.18 6.884-7.644 6.884-2.184 0-3.893-.574-5.696-2.008L165.544 33h-.854Zm41.735-16.492c2.516 0 3.94.43 5.032 1.53 1.092 1.099 1.709 3.154 1.709 5.449 0 4.78-2.374 7.457-6.599 7.457h-1.709c-2.516 0-2.944-.383-2.944-2.486v-11.95h4.511Zm-4.511-14.484h4.035c3.988 0 5.745 1.96 5.745 6.405 0 2.199-.522 3.777-1.566 5.02-1.045 1.194-2.327 1.577-4.986 1.577h-3.228V2.024Zm14.006 6.31c0-2.486-1.045-4.685-2.849-6.071-1.614-1.195-3.466-1.721-6.551-1.721h-12.487v1.195c3.418.191 3.893.574 3.893 3.155v23.184c0 2.581-.38 2.915-3.893 3.202v1.148h12.011c3.514 0 5.413-.43 7.406-1.674 2.375-1.53 3.942-4.445 3.942-7.456 0-2.582-1.092-4.924-2.945-6.358-.997-.765-2.041-1.195-3.75-1.53 3.419-1.29 5.223-3.728 5.223-7.074Zm9.221 10.516c.474-5.497 2.28-8.318 5.317-8.318 3.087 0 4.653 2.677 4.938 8.318h-10.255Zm6.172 12.524c-4.321 0-6.22-3.346-6.268-10.803h14.148c-.094-7.362-3.085-11.282-8.687-11.282-5.698 0-9.258 4.638-9.258 11.999 0 7.361 3.56 11.664 9.684 11.664 4.654 0 7.693-2.916 8.308-7.84h-1.899c-.568 4.063-2.658 6.262-6.028 6.262Zm10.394-20.124v-.813c2.755-.382 4.369-.765 6.266-1.434.239 1.1.381 2.342.476 4.159 1.708-2.582 3.655-3.729 6.409-3.729 2.848 0 5.317 1.482 6.268 3.824.474 1.147.711 2.486.711 4.302v11.473c0 2.055.475 2.438 3.37 2.581v.957c-2.515-.24-3.465-.288-5.173-.288-1.758 0-2.706.048-5.176.288v-.957c2.563-.096 3.181-.574 3.181-2.486v-11.71c0-4.16-1.233-5.833-4.273-5.833-3.228 0-4.936 2.056-4.936 5.975v11.568c0 1.912.616 2.39 3.085 2.486v.957c-2.469-.24-3.418-.288-5.128-.288-1.662 0-2.658.048-5.128.288v-.957c2.896-.143 3.37-.526 3.37-2.581V13.544c-.045-1.96-.33-2.247-2.704-2.247-.143 0-.381-.047-.618-.047Zm25.347 21.175 12.866-21.32h-5.841c-3.085 0-3.844.67-5.554 4.972h-.949l1.092-6.214H285l-12.914 21.32h5.554c3.231 0 4.558-1.291 5.983-5.64h.999l-1.236 6.883h-16.332Z" fill="#fff"/></svg><svg fill="none" viewBox="0 0 50 50" id="logo2" xmlns="http://www.w3.org/2000/svg"><g clip-path="url(#ea)"><path d="M49.453 25c0 13.516-10.937 24.453-24.453 24.453S.547 38.516.547 25 11.484.547 25 .547 49.453 11.484 49.453 25ZM25 2.031A22.906 22.906 0 0 0 2.031 25c0 12.734 10.313 22.969 22.969 22.969 12.734 0 22.969-10.313 22.969-22.969A22.906 22.906 0 0 0 25 2.031Z" fill="url(#eb)"/><path d="M25 2.031A22.906 22.906 0 0 0 2.031 25c0 12.734 10.313 22.969 22.969 22.969 12.734 0 22.969-10.313 22.969-22.969A22.906 22.906 0 0 0 25 2.031Zm0 44.453C13.125 46.484 3.516 36.875 3.516 25 3.516 13.125 13.125 3.516 25 3.516c11.875 0 21.484 9.609 21.484 21.484 0 11.875-9.609 21.484-21.484 21.484Z" fill="url(#ec)"/><path opacity=".4" d="M25 49.453c13.516 0 24.453-10.937 24.453-24.453S38.516.547 25 .547.547 11.484.547 25 11.484 49.453 25 49.453ZM25 0c13.75 0 25 11.25 25 25S38.75 50 25 50 0 38.75 0 25 11.25 0 25 0Z" fill="url(#ed)"/><path d="M1.719 25.078c0-12.812 10.39-23.36 23.281-23.36 12.89 0 23.281 10.47 23.281 23.36 0 12.813-10.39 23.203-23.281 23.203-12.89 0-23.281-10.39-23.281-23.203ZM8.984 8.984c-4.14 4.141-6.718 9.844-6.718 16.094a22.68 22.68 0 0 0 6.64 16.016c4.14 4.062 9.844 6.64 16.094 6.64 6.25 0 11.953-2.5 16.016-6.64 4.14-4.063 6.64-9.766 6.64-16.016 0-6.25-2.578-11.953-6.64-16.094A22.424 22.424 0 0 0 25 2.266 22.424 22.424 0 0 0 8.984 8.984Z" fill="#fff"/><path opacity=".4" d="M25 46.563c-5.781 0-11.172-2.266-15.234-6.329C5.703 36.172 3.437 30.781 3.437 25c0-5.781 2.266-11.172 6.329-15.234C13.828 5.703 19.219 3.437 25 3.437c5.781 0 11.172 2.266 15.234 6.329 4.063 4.062 6.328 9.453 6.328 15.234 0 5.781-2.265 11.172-6.328 15.234-4.062 4.063-9.453 6.328-15.234 6.328Zm0-.626a20.87 20.87 0 0 0 14.766-6.093c3.984-3.985 6.093-9.219 6.093-14.766a20.87 20.87 0 0 0-6.093-14.765C35.78 6.328 30.546 4.218 25 4.218a20.87 20.87 0 0 0-14.766 6.093C6.25 14.142 4.063 19.453 4.063 25a20.87 20.87 0 0 0 6.093 14.766c3.985 3.984 9.297 6.172 14.844 6.172Z" fill="url(#ee)"/><path d="M43.984 35.156c-.39-.312-15.468-12.265-15.468-12.265L25 2.813a1.334 1.334 0 0 0-.703.624l-2.5 19.532L6.25 34.922s-.313.39-.469.625c-.078.156-.078.39-.078.625l19.219-7.89 19.219 7.89c.156-.39 0-.781-.157-1.016Z" fill="#fff"/><path d="M25.156 25.625 25 29.219l17.656 7.11c.625.312 1.094.155 1.563-.157L25.39 25.547c-.078-.078-.235 0-.235.078Z" fill="#565F64"/><path d="M25.156 25.625s1.016 1.797 2.188 3.047c1.64 1.797 3.828 3.047 3.828 3.047l11.484 4.61c.625.312 1.094.155 1.563-.157L25.39 25.547c-.078-.078-.235 0-.235.078Z" fill="url(#ef)"/><path d="M44.14 35.469c0-.078-.078-.157-.156-.313L27.891 23.36l-2.188 1.407s.156.078.235 0a1.956 1.956 0 0 1 1.171 0c.391.156 17.032 10.78 17.032 10.78v-.077Z" fill="#A4AAAE" fill-opacity=".6"/><path d="m43.594 34.766-15-11.875-.703.468 16.093 11.875c-.078-.156-.234-.312-.39-.468Z" fill="#333E46"/><path d="m25.39 24.453-.078.078s0 .157.157.078c.078-.078 2.343-1.25 3.125-1.718L25.859 4.14c-.078-.704-.39-1.016-.937-1.25l.312 21.718.157-.156Z" fill="#565F64"/><path d="M24.063 4.14v1.016l-1.72 17.266c0 .234.079.469.313.625l1.016.781.703-19.062.078-1.485c-.234.156-.312.469-.39.86ZM23.125 24.14l-.938-.78L6.329 34.843s-.469.312-.547.625l.547-.313 16.64-10.468c.313-.157.391-.313.157-.547Z" fill="#A4AAAE" fill-opacity=".6"/><path d="M24.766 25.625c0-.078-.078-.156-.157-.078L5.703 36.25c.469.313.938.39 1.563.156l17.656-7.11-.156-3.671Z" fill="#565F64"/><path d="m25.313 24.531.078-.078-.078.078s0 .078.078.078h.078c.078-.078 2.343-1.25 3.125-1.718l-.313-2.266L25.86 4.141c0-.313-.078-.547-.234-.704 0 0 1.172 15.782 1.172 17.5 0 2.266-1.485 3.594-1.485 3.594Z" fill="url(#eg)"/><path d="M24.766 25.625c0-.078-.078-.156-.157-.078L5.703 36.25c.469.313.938.39 1.563.156l17.656-7.11-.156-3.671Z" fill="url(#eh)" fill-opacity=".8"/><path opacity=".8" d="m7.266 36.328 17.656-7.11-.156-3.437c-.313.938-.86 1.953-2.344 2.735-1.094.625-11.563 5.78-15.313 7.578-.234.156-.546.234-.703.312.313.157.547.078.86-.078Z" fill="url(#ei)"/><path d="m25.39 24.453-.078.078s0 .157.157.078c.078-.078 2.343-1.25 3.125-1.718L25.859 4.14c-.078-.704-.39-1.016-.937-1.25l.312 21.718.157-.156Z" fill="url(#ej)"/><path d="m25.39 24.453-.078.078s0 .157.157.078c.078-.078 2.343-1.25 3.125-1.718L25.859 4.14c-.078-.704-.39-1.016-.937-1.25l.312 21.718.157-.156Z" fill="url(#ek)"/><path d="M3.984 34.688c-.546-1.25-3.671-7.344-.234-19.063H2.422c-.703 2.344-1.25 3.75-1.563 5.86 0 0-.156.78-.234 1.64-.078.86-.078 1.328-.078 1.875 0 4.688 1.172 7.422 1.172 7.422 1.25 3.906 3.437 7.422 6.406 10.078 2.578 2.266 6.563 3.984 9.844 4.61-.547-.079-9.922-4.063-13.985-12.422Z" fill="url(#el)"/><path d="M25.313 25.469h-.704c.078 0 .157 0 .157.078l.156 3.594H25l.156-3.594c0-.078.078-.156.157-.078Z" fill="url(#em)"/><path d="M32.813 1.797C41.016 4.922 48.75 13.516 48.75 24.375 48.75 37.5 38.281 48.203 25 48.203v1.25c13.281 0 24.453-10.937 24.453-24.453 0-10.781-6.875-19.844-16.64-23.203Z" fill="url(#en)"/><path d="M45.938 15.781C40.468 3.203 28.125 2.5 27.422 2.421h-.078c9.453 1.72 15.468 7.892 17.578 14.376v.078c.937 2.5 1.406 5.156 1.484 8.047.078 2.734-.547 5.781-1.718 8.594-.079.39-.157.859-.235.859h1.25c3.75-7.031 2.11-14.14.234-18.594Z" fill="url(#eo)"/><path d="M1.719 25.078c0-12.812 10.39-23.36 23.281-23.36 12.89 0 23.281 10.47 23.281 23.36 0 12.813-10.39 23.203-23.281 23.203-12.89 0-23.281-10.39-23.281-23.203ZM8.984 8.984c-4.14 4.141-6.718 9.844-6.718 16.094a22.68 22.68 0 0 0 6.64 16.016c4.14 4.062 9.844 6.64 16.094 6.64 6.25 0 11.953-2.5 16.016-6.64 4.14-4.063 6.64-9.766 6.64-16.016 0-6.25-2.578-11.953-6.64-16.094A22.424 22.424 0 0 0 25 2.266 22.424 22.424 0 0 0 8.984 8.984Z" fill="#FBFBFB"/><path d="m6.172 35 15.937-11.484c.86.468 2.266 1.093 2.422 1.093.157.078.157-.078.157-.078l-1.954-1.64c-.234-.157-.312-.391-.312-.625l1.875-18.828c-.078.078-.078.234-.156.312-.078.156-.078.234-.078.39L21.328 22.97l-15 11.797c-.078.078-.156.156-.156.234Z" fill="#333F47"/></g><defs><linearGradient id="eb" x1="6.25" y1="9.297" x2="43.75" y2="40.703" gradientUnits="userSpaceOnUse"><stop stop-color="#fff"/><stop offset=".1" stop-color="#CDD0D0"/><stop offset=".2" stop-color="#A5ACAF"/><stop offset=".3" stop-color="#98A0A4"/><stop offset=".4" stop-color="#828A8F"/><stop offset=".5" stop-color="#667075"/><stop offset=".6" stop-color="#535C63"/><stop offset=".7" stop-color="#475158"/><stop offset=".8" stop-color="#434D54"/><stop offset="1" stop-color="#475157"/></linearGradient><linearGradient id="ec" x1="7.422" y1="10.234" x2="42.578" y2="39.766" gradientUnits="userSpaceOnUse"><stop stop-color="#0B1F2A"/><stop offset=".2" stop-color="#333F47"/><stop offset=".5" stop-color="#81898D"/><stop offset=".7" stop-color="#B3B8B8"/><stop offset=".8" stop-color="#DEE0DD"/><stop offset="1" stop-color="#FBFBFB"/></linearGradient><linearGradient id="ed" x1="33.572" y1="48.521" x2="16.463" y2="1.49" gradientUnits="userSpaceOnUse"><stop stop-color="#E1E3E1"/><stop offset=".1" stop-color="#C1C5C4"/><stop offset=".3" stop-color="#9BA1A2"/><stop offset=".5" stop-color="#7D8487"/><stop offset=".7" stop-color="#687074" stop-opacity="0"/><stop offset=".8" stop-color="#5B6469" stop-opacity="0"/><stop offset="1" stop-color="#576065" stop-opacity="0"/></linearGradient><linearGradient id="ee" x1="14.219" y1="6.328" x2="35.781" y2="43.672" gradientUnits="userSpaceOnUse"><stop stop-color="#E1E3E1"/><stop offset=".1" stop-color="#C1C5C4"/><stop offset=".3" stop-color="#9BA1A2"/><stop offset=".5" stop-color="#7D8487"/><stop offset=".7" stop-color="#687074" stop-opacity="0"/><stop offset=".8" stop-color="#5B6469" stop-opacity="0"/><stop offset="1" stop-color="#576065" stop-opacity="0"/></linearGradient><linearGradient id="ef" x1="34.766" y1="30.781" x2="33.438" y2="32.969" gradientUnits="userSpaceOnUse"><stop stop-color="#27343C"/><stop offset="1" stop-color="#00111E" stop-opacity="0"/></linearGradient><linearGradient id="eg" x1="30.938" y1="22.734" x2="28.75" y2="19.219" gradientUnits="userSpaceOnUse"><stop offset=".1" stop-color="#02131F"/><stop offset=".9" stop-color="#02131F" stop-opacity="0"/></linearGradient><linearGradient id="eh" x1="25" y1="28.438" x2="21.719" y2="29.375" gradientUnits="userSpaceOnUse"><stop offset=".2" stop-color="#02131F"/><stop offset=".9" stop-color="#02131F" stop-opacity="0"/></linearGradient><linearGradient id="ei" x1="16.25" y1="32.734" x2="15.781" y2="31.563" gradientUnits="userSpaceOnUse"><stop stop-color="#02131F"/><stop offset=".1" stop-color="#02131F"/><stop offset="1" stop-color="#02131F" stop-opacity="0"/></linearGradient><linearGradient id="ej" x1="27.813" y1="13.438" x2="25.156" y2="13.75" gradientUnits="userSpaceOnUse"><stop offset=".3" stop-color="#02131F"/><stop offset=".8" stop-color="#02131F" stop-opacity="0"/></linearGradient><linearGradient id="ek" x1="27.891" y1="13.359" x2="26.094" y2="13.594" gradientUnits="userSpaceOnUse"><stop offset=".4" stop-color="#27343C"/><stop offset="1" stop-color="#3B474E" stop-opacity="0"/></linearGradient><linearGradient id="el" x1="-.313" y1="25.703" x2="21.484" y2="38.281" gradientUnits="userSpaceOnUse"><stop stop-color="#25323B" stop-opacity="0"/><stop offset=".1" stop-color="#27343C"/></linearGradient><linearGradient id="em" x1="25" y1="29.219" x2="25" y2="25.469" gradientUnits="userSpaceOnUse"><stop offset=".3" stop-color="#A5ABAF"/><stop offset="1" stop-color="#A5ABAF" stop-opacity="0"/></linearGradient><linearGradient id="en" x1="37.266" y1="1.797" x2="37.266" y2="49.453" gradientUnits="userSpaceOnUse"><stop stop-color="#6B7378"/><stop offset=".2" stop-color="#333F47"/><stop offset=".5" stop-color="#27343C"/><stop offset=".8" stop-color="#333F47"/><stop offset="1" stop-color="#434D54"/></linearGradient><linearGradient id="eo" x1="44.766" y1="6.328" x2="34.219" y2="21.797" gradientUnits="userSpaceOnUse"><stop offset=".7" stop-color="#49545B"/><stop offset=".8" stop-color="#fff" stop-opacity="0"/></linearGradient><clipPath id="ea"><path fill="#fff" d="M0 0h50v50H0z"/></clipPath></defs></svg><svg fill="none" viewBox="0 0 19 23" id="play-video" xmlns="http://www.w3.org/2000/svg"><path d="M19 11.5.25 22.325V.675L19 11.5Z" fill="#F402A2"/></svg><svg fill="none" viewBox="0 0 40 40" id="twitter" xmlns="http://www.w3.org/2000/svg"><path fill-rule="evenodd" clip-rule="evenodd" d="M19.947 39.51c11.016 0 19.947-8.844 19.947-19.755C39.894 8.845 30.964 0 19.947 0S0 8.845 0 19.755c0 10.91 8.93 19.756 19.947 19.756Z" fill="#F5F6FA" fill-opacity=".01"/><mask id="ga" style="mask-type:luminance" maskUnits="userSpaceOnUse" x="0" y="0" width="40" height="40"><path fill-rule="evenodd" clip-rule="evenodd" d="M19.947 39.51c11.016 0 19.947-8.844 19.947-19.755C39.894 8.845 30.964 0 19.947 0S0 8.845 0 19.755c0 10.91 8.93 19.756 19.947 19.756Z" fill="#fff"/></mask><path d="M31.17 13.861a8.295 8.295 0 0 1-2.386.655 4.172 4.172 0 0 0 1.827-2.297 8.376 8.376 0 0 1-2.64 1.008 4.155 4.155 0 0 0-7.08 3.788 11.797 11.797 0 0 1-8.565-4.34 4.123 4.123 0 0 0-.562 2.088c0 1.441.734 2.714 1.848 3.458a4.156 4.156 0 0 1-1.882-.522v.052a4.16 4.16 0 0 0 3.332 4.075 4.21 4.21 0 0 1-1.094.145c-.269 0-.528-.027-.783-.077a4.157 4.157 0 0 0 3.881 2.886 8.337 8.337 0 0 1-5.16 1.775c-.336 0-.666-.02-.991-.056a11.746 11.746 0 0 0 6.369 1.869c7.644 0 11.822-6.331 11.822-11.822l-.014-.538a8.296 8.296 0 0 0 2.078-2.146Z" fill="#010002"/><mask id="gb" style="mask-type:luminance" maskUnits="userSpaceOnUse" x="10" y="11" width="22" height="18"><path d="M31.17 13.861a8.295 8.295 0 0 1-2.386.655 4.172 4.172 0 0 0 1.827-2.297 8.376 8.376 0 0 1-2.64 1.008 4.155 4.155 0 0 0-7.08 3.788 11.797 11.797 0 0 1-8.565-4.34 4.123 4.123 0 0 0-.562 2.088c0 1.441.734 2.714 1.848 3.458a4.156 4.156 0 0 1-1.882-.522v.052a4.16 4.16 0 0 0 3.332 4.075 4.21 4.21 0 0 1-1.094.145c-.269 0-.528-.027-.783-.077a4.157 4.157 0 0 0 3.881 2.886 8.337 8.337 0 0 1-5.16 1.775c-.336 0-.666-.02-.991-.056a11.746 11.746 0 0 0 6.369 1.869c7.644 0 11.822-6.331 11.822-11.822l-.014-.538a8.296 8.296 0 0 0 2.078-2.146Z" fill="#fff"/></mask><g mask="url(#gb)"><path fill="#fff" d="M7.34 7.149h26.213v26.213H7.34z"/></g></svg></svg>